<svg version="1.1" xmlns="http://www.w3.org/2000/svg" xmlns:xlink="http://www.w3.org/1999/xlink" width="66.12151" height="63.37305" viewBox="0,0,66.12151,63.37305"><g transform="translate(-206.93924,-147.85513)"><g data-paper-data="{&quot;isPaintingLayer&quot;:true}" fill-rule="nonzero" stroke-linejoin="miter" stroke-miterlimit="10" stroke-dasharray="" stroke-dashoffset="0" style="mix-blend-mode: normal"><path d="M206.93924,202.22276l21.74104,-52.64708l44.38047,9.00542l-21.74104,52.64708z" fill="#857b98" stroke="none" stroke-width="0" stroke-linecap="butt"/><path d="M237.8291,155.06338l0.96092,-5.7154l6.43297,1.36155c0,0 4.01377,-2.32094 6.21187,-1.8826c1.9318,0.38523 6.44714,3.96641 6.44714,3.96641l7.03477,1.76476l-0.98984,5.454z" fill="none" stroke="#000000" stroke-width="2.5" stroke-linecap="butt"/><path d="M212.06891,199.12133l18.23529,-43.23131l37.2241,7.39483l-18.23529,43.23131z" fill="#ffffff" stroke="none" stroke-width="0" stroke-linecap="butt"/><path d="M256.24379,169.58971l-18.40992,9.20489l-6.04897,-9.20489" fill="none" stroke="#ff0000" stroke-width="2.5" stroke-linecap="round"/><path d="M224.42095,179.99786l25.51089,5.59513" fill="none" stroke="#000000" stroke-width="2.5" stroke-linecap="round"/><path d="M222.31696,185.05153l25.24789,5.41464" fill="none" stroke="#000000" stroke-width="2.5" stroke-linecap="round"/><path d="M221.26496,190.1052l24.19589,5.59513" fill="none" stroke="#000000" stroke-width="2.5" stroke-linecap="round"/><path d="M218.89797,193.89545l24.72189,5.23416" fill="none" stroke="#000000" stroke-width="2.5" stroke-linecap="round"/></g></g></svg>