<svg version="1.1" xmlns="http://www.w3.org/2000/svg" xmlns:xlink="http://www.w3.org/1999/xlink" width="40.16727" height="57.17354" viewBox="0,0,40.16727,57.17354"><g transform="translate(-208.19536,-180.35789)"><g data-paper-data="{&quot;isPaintingLayer&quot;:true}" fill-rule="nonzero" stroke-linecap="butt" stroke-linejoin="miter" stroke-miterlimit="10" stroke-dasharray="" stroke-dashoffset="0" style="mix-blend-mode: normal"><path d="M211.54688,233.75c0,0 5.05247,-6.62451 3.21524,-16.72113c-1.03647,-5.69601 -7.17529,-27.95187 -6.21524,-33.77887c0.22597,-1.37155 0.80745,0.29876 0.80745,0.29876c0,0 12.21871,33.59712 14.98793,32.61844c3.05674,-1.08029 -11.72691,-15.30123 -4.70845,-19.8486c1.38275,-0.89591 17.41306,22.4314 17.41306,22.4314c0,0 -3.49368,-39.96664 -2.37021,-38.07717c2.00432,3.37091 13.37021,56.57717 13.37021,56.57717z" fill="#ff0000" stroke="#000000" stroke-width="0.5"/><path d="M215.42033,231.51463c0,0 4.0318,-5.28627 2.56572,-13.34325c-0.82709,-4.54535 -5.72579,-22.30525 -4.95968,-26.95512c0.18033,-1.09448 0.64434,0.23841 0.64434,0.23841c0,0 9.75037,26.81008 11.96018,26.02911c2.43924,-0.86206 -9.35793,-12.2102 -3.75728,-15.83894c1.10342,-0.71493 13.89541,17.89998 13.89541,17.89998c0,0 -2.78791,-31.89288 -1.8914,-30.38511c1.59943,2.68994 10.66926,45.14788 10.66926,45.14788z" fill="#ff6300" stroke="#000000" stroke-width="0.5"/><path d="M218.52874,231.80503c0,0 3.39389,-4.44988 2.15977,-11.23208c-0.69623,-3.82618 -4.81985,-18.77611 -4.17496,-22.69028c0.15179,-0.92131 0.54239,0.20068 0.54239,0.20068c0,0 8.20767,22.56819 10.06784,21.91078c2.05331,-0.72566 -7.87732,-10.2783 -3.16281,-13.3329c0.92884,-0.60181 11.69688,15.06784 11.69688,15.06784c0,0 -2.3468,-26.84678 -1.59214,-25.57757c1.34636,2.26434 8.98117,38.00457 8.98117,38.00457z" fill="#fcff00" stroke="#000000" stroke-width="0.5"/><text transform="translate(225.04688,229.25) scale(0.5,0.5)" font-size="40" xml:space="preserve" fill="#000000" fill-rule="nonzero" stroke="#252525" stroke-width="3" stroke-linecap="butt" stroke-linejoin="miter" stroke-miterlimit="10" stroke-dasharray="" stroke-dashoffset="0" font-family="Sans Serif" font-weight="normal" text-anchor="start" style="mix-blend-mode: normal"><tspan x="0" dy="0">4</tspan></text></g></g></svg>