<svg version="1.1" xmlns="http://www.w3.org/2000/svg" xmlns:xlink="http://www.w3.org/1999/xlink" width="72.31606" height="92.02182" viewBox="0,0,72.31606,92.02182"><defs><linearGradient x1="228.96203" y1="170.51816" x2="228.96203" y2="179.95559" gradientUnits="userSpaceOnUse" id="color-1"><stop offset="0" stop-color="#ffe600"/><stop offset="1" stop-color="#ff3508"/></linearGradient><linearGradient x1="244.64036" y1="157.24373" x2="244.64036" y2="168.20333" gradientUnits="userSpaceOnUse" id="color-2"><stop offset="0" stop-color="#ffe600"/><stop offset="1" stop-color="#ff3508"/></linearGradient><linearGradient x1="251.20769" y1="150.72042" x2="251.20769" y2="161.68002" gradientUnits="userSpaceOnUse" id="color-3"><stop offset="0" stop-color="#ffe600"/><stop offset="1" stop-color="#ff3508"/></linearGradient><linearGradient x1="257.42735" y1="146.98026" x2="257.42735" y2="157.93986" gradientUnits="userSpaceOnUse" id="color-4"><stop offset="0" stop-color="#ffe600"/><stop offset="1" stop-color="#ff3508"/></linearGradient><linearGradient x1="263.99469" y1="142.89242" x2="263.99469" y2="153.85202" gradientUnits="userSpaceOnUse" id="color-5"><stop offset="0" stop-color="#ffe600"/><stop offset="1" stop-color="#ff3508"/></linearGradient></defs><g transform="translate(-203.84197,-133.98909)"><g data-paper-data="{&quot;isPaintingLayer&quot;:true}" fill-rule="nonzero" stroke-linejoin="miter" stroke-miterlimit="10" stroke-dasharray="" stroke-dashoffset="0" style="mix-blend-mode: normal"><path d="M204.34197,225.51091v-91.02182h71.31606v91.02182z" fill="#ffffff" stroke="#000000" stroke-width="1" stroke-linecap="butt"/><path d="M207.15708,202.05168v-65.68585h65.68584v65.68585z" fill="#eaeaea" stroke="#000000" stroke-width="1" stroke-linecap="butt"/><text transform="translate(204.40492,218.94232) scale(0.30518,0.5)" font-size="40" xml:space="preserve" fill="#000000" fill-rule="nonzero" stroke="none" stroke-width="1" stroke-linecap="butt" stroke-linejoin="miter" stroke-miterlimit="10" stroke-dasharray="" stroke-dashoffset="0" font-family="Sans Serif" font-weight="normal" text-anchor="start" style="mix-blend-mode: normal"><tspan x="0" dy="0">Сундук с м..</tspan></text><path d="M211.76155,192.11912v-19.48374c0,0 3.91269,-7.01967 17.04827,-7.3064c13.94676,-0.30444 18.87487,7.3064 18.87487,7.3064v19.48374z" fill="#d45800" stroke="#000000" stroke-width="0.5" stroke-linecap="butt"/><path d="M247.38026,172.93982l-35.31428,-0.30443" fill="none" stroke="#000000" stroke-width="0.5" stroke-linecap="round"/><path d="M222.72115,179.95559v-9.43743h12.48177v9.43743z" fill="url(#color-1)" stroke="#000000" stroke-width="0.5" stroke-linecap="butt"/><path d="M239.16055,162.72353c0,-3.02641 2.45339,-5.4798 5.4798,-5.4798c3.02641,0 5.4798,2.45339 5.4798,5.4798c0,3.02641 -2.45339,5.4798 -5.4798,5.4798c-3.02641,0 -5.4798,-2.45339 -5.4798,-5.4798z" fill="url(#color-2)" stroke="#000000" stroke-width="0.5" stroke-linecap="butt"/><path d="M245.72789,156.20023c0,-3.02641 2.45339,-5.4798 5.4798,-5.4798c3.02641,0 5.4798,2.45339 5.4798,5.4798c0,3.02641 -2.45339,5.4798 -5.4798,5.4798c-3.02641,0 -5.4798,-2.45339 -5.4798,-5.4798z" fill="url(#color-3)" stroke="#000000" stroke-width="0.5" stroke-linecap="butt"/><path d="M251.94755,152.46006c0,-3.02641 2.45339,-5.4798 5.4798,-5.4798c3.02641,0 5.4798,2.45339 5.4798,5.4798c0,3.02641 -2.45339,5.4798 -5.4798,5.4798c-3.02641,0 -5.4798,-2.45339 -5.4798,-5.4798z" fill="url(#color-4)" stroke="#000000" stroke-width="0.5" stroke-linecap="butt"/><path d="M258.51488,148.37223c0,-3.02641 2.45339,-5.4798 5.4798,-5.4798c3.02641,0 5.4798,2.45339 5.4798,5.4798c0,3.02641 -2.45339,5.4798 -5.4798,5.4798c-3.02641,0 -5.4798,-2.45339 -5.4798,-5.4798z" fill="url(#color-5)" stroke="#000000" stroke-width="0.5" stroke-linecap="butt"/></g></g></svg>