<svg version="1.1" xmlns="http://www.w3.org/2000/svg" xmlns:xlink="http://www.w3.org/1999/xlink" width="72.31606" height="92.02182" viewBox="0,0,72.31606,92.02182"><g transform="translate(-203.84197,-133.98909)"><g data-paper-data="{&quot;isPaintingLayer&quot;:true}" fill-rule="nonzero" stroke-linejoin="miter" stroke-miterlimit="10" stroke-dasharray="" stroke-dashoffset="0" style="mix-blend-mode: normal"><path d="M204.34197,225.51091v-91.02182h71.31606v91.02182z" fill="#ffffff" stroke="#000000" stroke-width="1" stroke-linecap="butt"/><path d="M207.15708,202.05168v-65.68585h65.68584v65.68585z" fill="#eaeaea" stroke="#000000" stroke-width="1" stroke-linecap="butt"/><text transform="translate(207.67663,218.94232) scale(0.5,0.5)" font-size="40" xml:space="preserve" fill="#000000" fill-rule="nonzero" stroke="none" stroke-width="1" stroke-linecap="butt" stroke-linejoin="miter" stroke-miterlimit="10" stroke-dasharray="" stroke-dashoffset="0" font-family="Sans Serif" font-weight="normal" text-anchor="start" style="mix-blend-mode: normal"><tspan x="0" dy="0">Жизнь</tspan></text><path d="M238.99875,164.03055c0,5.52285 -4.10406,10 -9.16667,10c-5.06261,0 -9.16667,-4.47715 -9.16667,-10c0,-5.52285 4.10406,-10 9.16667,-10c5.06261,0 9.16667,4.47715 9.16667,10z" fill="#ff0000" stroke="none" stroke-width="0" stroke-linecap="butt"/><path d="M256.99875,163.86388c0,5.4308 -4.32791,9.83333 -9.66667,9.83333c-5.33875,0 -9.66667,-4.40253 -9.66667,-9.83333c0,-5.4308 4.32791,-9.83333 9.66667,-9.83333c5.33875,0 9.66667,4.40253 9.66667,9.83333z" fill="#ff0000" stroke="none" stroke-width="0" stroke-linecap="butt"/><path d="M221.33209,168.36388l16.66667,24l16.66667,-22.66667" fill="none" stroke="#ff0000" stroke-width="0.5" stroke-linecap="round"/><path d="M226.64979,167.11388c0.91756,0 1.71966,0.49431 2.15454,1.23117l0.03296,0.01883l0.01789,0.07157c0.18596,0.3473 0.29229,0.74363 0.29457,1.16459l0.02738,0.12323l0.13932,0.55728v0.06966l0.01558,0.07009l-0.01558,0.02336v0.00845l0.1011,0.06066l0.05739,0.05739l0.75818,0.18954l0.04898,0.08571l0.09857,0.00548l0.83853,0.97828l0.26038,0.52077l0.02438,0.01393l0.01742,0.06966l0.03115,0.06231l0.12461,0.56075l0.13932,0.55728l0,0.06966l0.01558,0.07009l-0.01558,0.02336v0.17021l0.09747,-0.38988l0.03082,-0.40069l0.03837,-0.11512v-0.09785l-0.01558,-0.02336l0.01558,-0.07009v-0.06966l0.13932,-0.55728l0.12461,-0.56075l0.03115,-0.06231l0.01742,-0.06966l0.00746,-0.00426l0.08802,-0.35208l0.00669,-0.01254l-0.01201,-0.04404l0.31946,-0.53244l0.2922,-0.54787l0.04394,-0.01236l0.00731,-0.01218l0.51503,-0.51503l-0.00073,-0.01061l0.43504,-0.47854l0.42089,-0.49104l0.03826,-0.00213l0.38226,-0.25484l0.64049,-0.5124l0.23543,-0.23543l0.34461,-0.20676l0.30513,-0.26154l0.66667,-0.33333l0.17566,-0.03903l0.15181,-0.09661l0.5,-0.16667l0.65411,-0.05032l0.13646,-0.07798l0.10408,0.05947l0.39003,-0.03l0.78215,0.69982l0.91124,0.52071l0.09488,0.3795l0.08933,0.07993l-0.03082,0.15411l0.15911,0.63646v0.70492l0.2153,-0.10765l0.11946,-0.02655l0.00233,-0.0014l0.00178,0.00049l0.08412,-0.01869l0.24743,-0.14846l0.18885,0.05151l0.61381,-0.1364l0.7712,0.51413l0.85681,0.23368l0.11251,0.41254l0.15114,0.10076l0.72824,-0.41614l0.43834,-0.12328l0.48951,-0.20611l0.09589,0.04147l0.21661,-0.06092l0.98558,0.58079l0.20175,0.08724l0.56508,-0.45206l0.00437,-0.01553l0.04513,-0.02407l0.13636,-0.10909l0.48482,-0.22221l0.47058,-0.25097l0.05232,-0.01308l0.60092,-0.42923l0.50265,-0.19801l0.56002,-0.25667l0.04566,0.01807l0.09048,-0.03564l1.10818,0.51012l1.09828,0.43474l0.01197,0.07633l0.07019,0.03231l0.11922,1.17516l0.18905,1.20522l-0.05894,0.07736l0.00496,0.04886l-0.39948,0.46895l-0.32741,0.42973l-0.64748,0.51798l-0.00437,0.01553l-0.04513,0.02407l-0.13636,0.10909l-0.1664,0.07627l-0.22867,0.30489l-0.21653,0.17593l-0.04024,0.14308l-0.39542,0.21089l-0.34781,0.28259l-0.14749,-0.01844l-0.23795,0.12691l-0.12641,0.12641l-0.10778,0.4311l0.0503,0.18443l-0.16527,0.27545l-0.07791,0.31164l-0.16598,0.09485l-0.25375,0.42292l-0.04646,0.04646l-0.1519,0.3038l-0.13284,0.15498l-0.00692,0.12453l-0.37626,0.32251l-0.32251,0.37626l-0.12453,0.00692l-0.06195,0.0531l-0.07986,0.49513l-0.10575,0.24675l-0.00461,0.01845l-0.00436,0.00249l-0.38527,0.89897l-0.04549,0.05985l-0.01631,0.07338l-0.16667,0.33333l-0.10281,0.11994l-0.05313,0.14877l-0.58033,0.8705l-0.09706,0.19412l-0.26154,0.30513l-0.20676,0.34461l-0.13259,0.13259l-0.02674,0.04202l-0.01158,0.05209l0.00049,0.00178l-0.0014,0.00233l-0.02655,0.11946l-0.16667,0.33333l-0.26154,0.30513l-0.20676,0.34461l-0.33333,0.33333l-0.01218,0.00731l-0.01236,0.04394l-0.54787,0.2922l-0.53244,0.31946l-0.04404,-0.01201l-0.00431,0.0023l-0.68013,0.68013l-0.13835,0.08301l-0.03946,0.11838l0.00739,0.02709l-0.03694,0.06157l-0.02203,0.06609l-0.3084,0.48463l-0.29554,0.49257l-0.04926,0.04926l-0.03855,0.06058l-0.02754,0.00551l-0.37628,0.37628l-0.19602,0.29403l-0.95339,0.86672l-0.53815,-0.03711l-0.44883,0.29922l-1.25779,-0.27951l-0.1388,-0.0694h-1.40983l-0.19802,-0.0495l-0.11448,0.0495l-0.45673,-0.19231l-0.48077,-0.12019l-0.06188,-0.10829l-0.18812,-0.07921l-0.61115,-0.45837l-0.44226,-0.29484l-0.1675,-0.18425l-0.21352,-0.12811l-1,-1l-0.00731,-0.01218l-0.04394,-0.01236l-0.2922,-0.54787l-0.31946,-0.53244l0.01201,-0.04404l-0.00669,-0.01254l-0.10011,-0.40043l-0.13766,-0.27531l-0.02438,-0.01393l-0.01742,-0.06966l-0.03115,-0.06231l-0.12461,-0.56075l-0.11154,-0.44617l-0.04861,-0.02778l-0.3125,-1.25l0,-0.07143l-0.02083,-0.0119l-0.06507,-0.26029l-0.05367,-0.0246l-0.44375,-0.11094l-0.07157,-0.12525l-0.24016,-0.11008l-0.4706,-0.37648l-0.02548,-0.01529l-0.06609,-0.02203l-0.48463,-0.3084l-0.49257,-0.29554l-0.04926,-0.04926l-0.06058,-0.03855l-0.00551,-0.02754l-0.10265,-0.10265l-0.02754,-0.00551l-0.03855,-0.06058l-0.04926,-0.04926l-0.29554,-0.49257l-0.3084,-0.48463l-0.02203,-0.06609l-0.03694,-0.06157l0.00739,-0.02709l-0.00921,-0.02764l-0.14762,-0.22143l-0.05313,-0.14877l-0.10281,-0.11994l-0.16667,-0.33333l-0.03903,-0.17566l-0.09661,-0.15181l-0.02203,-0.06609l-0.12778,-0.21297l-0.16598,-0.09485l-0.07791,-0.31164l-0.16527,-0.27545l0.0503,-0.18443l-0.11962,-0.47848v-0.28181l-0.08983,-0.077l-0.34461,-0.20676l-0.21313,-0.21313l-0.3038,-0.1519l-0.15498,-0.13284l-0.12453,-0.00692l-0.32251,-0.37626l-0.37626,-0.32251l-0.00692,-0.12453l-0.13284,-0.15498l-0.09372,-0.18744l-0.02438,-0.01393l-0.01742,-0.06966l-0.03115,-0.06231l-0.12461,-0.56075l-0.13932,-0.55728v-0.06966l-0.01558,-0.07009l0.01558,-0.02336v-0.82321l-0.02735,-0.12306l-0.13932,-0.55728v-0.06966l-0.01558,-0.07009l0.01558,-0.02336l0,-0.17021c0,-0.42612 0.10661,-0.82733 0.29461,-1.17843l0.01789,-0.07157l0.03296,-0.01883c0.43488,-0.73685 1.23698,-1.23117 2.15454,-1.23117zM236.52479,180.11388l0.07742,0.30969l0.18582,-0.30969z" fill="#ff0000" stroke="none" stroke-width="0.5" stroke-linecap="butt"/><path d="M224.14979,171.61388l13.83333,19.5l10.16667,-13.33333" fill="none" stroke="#ff0000" stroke-width="1.5" stroke-linecap="round"/><path d="M237.31646,176.94721l0.5,12.33333l15,-17.83333" fill="none" stroke="#ff0000" stroke-width="1.5" stroke-linecap="round"/><path d="M236.14979,179.78055l1,8.66667" fill="none" stroke="#ff0000" stroke-width="1.5" stroke-linecap="round"/></g></g></svg>