<svg version="1.1" xmlns="http://www.w3.org/2000/svg" xmlns:xlink="http://www.w3.org/1999/xlink" width="70.59566" height="63.14286" viewBox="0,0,70.59566,63.14286"><g transform="translate(-192.54688,-128.75)"><g data-paper-data="{&quot;isPaintingLayer&quot;:true}" fill-rule="nonzero" stroke-linejoin="miter" stroke-miterlimit="10" stroke-dasharray="" stroke-dashoffset="0" style="mix-blend-mode: normal"><path d="M193.54688,190.89286v-50.14286l10,-11h43.5v61.14286z" fill="#b1b1b1" stroke="#000000" stroke-width="2" stroke-linecap="butt"/><path d="M200.04688,184.25v-40h41.5v40z" fill="#ffffff" stroke="#000000" stroke-width="2" stroke-linecap="butt"/><path d="M204.04688,135.75v-1h36.5v1z" fill="#ffffff" stroke="#000000" stroke-width="2" stroke-linecap="butt"/><path d="M204.54688,150.25h29.5" fill="none" stroke="#000000" stroke-width="2" stroke-linecap="round"/><path d="M205.54688,156.75h30" fill="none" stroke="#000000" stroke-width="2" stroke-linecap="round"/><path d="M205.04688,161.75h34" fill="none" stroke="#000000" stroke-width="2" stroke-linecap="round"/><path d="M205.04688,168.75h32" fill="none" stroke="#000000" stroke-width="2" stroke-linecap="round"/><path d="M205.04688,175.75h27.5" fill="none" stroke="#000000" stroke-width="2" stroke-linecap="round"/><path d="M263.14253,162.35605c0,2.75 -2.75,2.75 -2.75,2.75l0.33955,-0.17509c-2.76863,1.03327 -5.3245,1.98216 -8.05168,3.09594c-0.73142,0.29871 -1.65191,0.16564 -2.28122,0.64332c-0.78194,0.59354 -1.0808,1.64525 -1.71784,2.39219c-2.5374,2.97514 -5.02226,5.56998 -6.80758,9.12582c-0.9106,1.81365 -0.94256,4.04383 -2.08826,5.71891c-0.04505,0.06587 -0.09097,0.13103 -0.13769,0.19554l0.04104,0.02052l-1.22543,2.45086c-0.44095,0.93018 -1.38851,1.57345 -2.48632,1.57345c-1.30873,0 -2.40393,-0.9142 -2.68184,-2.13883l-0.58665,-2.34658c-1.49254,-4.30834 -5.16915,-6.40431 -9.52587,-6.79688c0,0 -2.73635,-0.27364 -2.46272,-3.00999c0.27364,-2.73635 3.00999,-2.46272 3.00999,-2.46272c5.15757,0.55572 9.20082,2.69442 11.96468,6.47678c0.84642,-1.74389 1.9899,-3.4796 2.61739,-4.5256c1.80267,-3.00498 3.93556,-5.33582 6.24602,-7.92118c0.93212,-1.04302 1.54212,-2.40717 2.66442,-3.24214c0.95562,-0.71096 2.2594,-0.76311 3.35311,-1.23479c2.78424,-1.20074 5.39578,-2.09765 8.22526,-3.16442l1.59163,-0.17509c0,0 2.75,0 2.75,2.75z" fill="#00ff1b" stroke="none" stroke-width="0.5" stroke-linecap="butt"/></g></g></svg>