<svg version="1.1" xmlns="http://www.w3.org/2000/svg" xmlns:xlink="http://www.w3.org/1999/xlink" width="131.5" height="234.5" viewBox="0,0,131.5,234.5"><defs><linearGradient x1="220.63599" y1="160.02718" x2="220.63599" y2="182.9524" gradientUnits="userSpaceOnUse" id="color-1"><stop offset="0" stop-color="#ffe600"/><stop offset="1" stop-color="#ff3508"/></linearGradient><linearGradient x1="250.44067" y1="127.7812" x2="250.44067" y2="154.40404" gradientUnits="userSpaceOnUse" id="color-2"><stop offset="0" stop-color="#ffe600"/><stop offset="1" stop-color="#ff3508"/></linearGradient><linearGradient x1="262.92524" y1="111.93491" x2="262.92524" y2="138.55775" gradientUnits="userSpaceOnUse" id="color-3"><stop offset="0" stop-color="#ffe600"/><stop offset="1" stop-color="#ff3508"/></linearGradient><linearGradient x1="274.74888" y1="102.84939" x2="274.74888" y2="129.47223" gradientUnits="userSpaceOnUse" id="color-4"><stop offset="0" stop-color="#ffe600"/><stop offset="1" stop-color="#ff3508"/></linearGradient><linearGradient x1="287.23347" y1="92.91929" x2="287.23347" y2="119.54213" gradientUnits="userSpaceOnUse" id="color-5"><stop offset="0" stop-color="#ffe600"/><stop offset="1" stop-color="#ff3508"/></linearGradient></defs><g transform="translate(-174.25,-62.75)"><g data-paper-data="{&quot;isPaintingLayer&quot;:true}" fill-rule="nonzero" stroke="#000000" stroke-linejoin="miter" stroke-miterlimit="10" stroke-dasharray="" stroke-dashoffset="0" style="mix-blend-mode: normal"><path d="M177.5,296v-232h127v232z" fill="#ff5307" stroke-width="2.5" stroke-linecap="butt"/><path d="M175.5,244h129" fill="none" stroke-width="2.5" stroke-linecap="round"/><path d="M187.93768,212.4998v-47.32951c0,0 7.43807,-17.05204 32.40895,-17.74856c26.51295,-0.73954 35.88134,17.74856 35.88134,17.74856v47.32951z" fill="#d45800" stroke-width="0.5" stroke-linecap="butt"/><path d="M255.64925,165.90983l-67.13284,-0.73952" fill="none" stroke-width="0.5" stroke-linecap="round"/><path d="M208.77201,182.9524v-22.92522h23.72799v22.92522z" fill="url(#color-1)" stroke-width="0.5" stroke-linecap="butt"/><path d="M240.02349,141.09262c0,-7.35169 4.66392,-13.31142 10.41716,-13.31142c5.75324,0 10.41716,5.95973 10.41716,13.31142c0,7.35169 -4.66392,13.31142 -10.41716,13.31142c-5.75324,0 -10.41716,-5.95973 -10.41716,-13.31142z" fill="url(#color-2)" stroke-width="0.5" stroke-linecap="butt"/><path d="M252.50808,125.24635c0,-7.35169 4.66392,-13.31142 10.41716,-13.31142c5.75324,0 10.41716,5.95973 10.41716,13.31142c0,7.35169 -4.66392,13.31142 -10.41716,13.31142c-5.75324,0 -10.41716,-5.95973 -10.41716,-13.31142z" fill="url(#color-3)" stroke-width="0.5" stroke-linecap="butt"/><path d="M264.33172,116.16081c0,-7.35169 4.66392,-13.31142 10.41716,-13.31142c5.75324,0 10.41716,5.95973 10.41716,13.31142c0,7.35169 -4.66392,13.31142 -10.41716,13.31142c-5.75324,0 -10.41716,-5.95973 -10.41716,-13.31142z" fill="url(#color-4)" stroke-width="0.5" stroke-linecap="butt"/><path d="M276.81629,106.23073c0,-7.35169 4.66392,-13.31142 10.41716,-13.31142c5.75324,0 10.41716,5.95973 10.41716,13.31142c0,7.35169 -4.66392,13.31142 -10.41716,13.31142c-5.75324,0 -10.41716,-5.95973 -10.41716,-13.31142z" fill="url(#color-5)" stroke-width="0.5" stroke-linecap="butt"/></g></g></svg>